<svg version="1.1" viewBox="0.0 0.0 960.0 720.0" fill="none" stroke="none" stroke-linecap="square" stroke-miterlimit="10" xmlns:xlink="http://www.w3.org/1999/xlink" xmlns="http://www.w3.org/2000/svg"><clipPath id="p.0"><path d="m0 0l960.0 0l0 720.0l-960.0 0l0 -720.0z" clip-rule="nonzero"/></clipPath><g clip-path="url(#p.0)"><path fill="#000000" fill-opacity="0.0" d="m0 0l960.0 0l0 720.0l-960.0 0z" fill-rule="evenodd"/><path fill="#000000" fill-opacity="0.0" d="m33.165356 40.076115l891.3701 0l0 620.50397l-891.3701 0z" fill-rule="evenodd"/><path fill="#ffffff" d="m299.65753 177.74799q55.46875 0 86.71875 39.578125q37.234375 46.875 37.234375 155.46875q0 108.328125 -37.5 155.73438q-30.984375 39.0625 -86.453125 39.0625q-55.73436 0 -89.85936 -42.84375q-34.109375 -42.84375 -34.109375 -152.73438q0 -107.8125 37.5 -155.20312q31.0 -39.0625 86.468735 -39.0625zm0 60.671875q-13.28125 0 -23.703125 8.46875q-10.421875 8.46875 -16.140625 30.34375q-7.5624847 28.375 -7.5624847 95.5625q0 67.1875 6.7656097 92.328125q6.78125 25.125 17.0625 33.453125q10.296875 8.328125 23.578125 8.328125q13.28125 0 23.6875 -8.453125q10.421875 -8.46875 16.15625 -30.34375q7.546875 -28.125 7.546875 -95.3125q0 -67.1875 -6.78125 -92.3125q-6.765625 -25.125 -17.046875 -33.59375q-10.28125 -8.46875 -23.5625 -8.46875zm360.14294 322.65625l-73.171875 0l0 -275.78125q-40.109375 37.5 -94.53125 55.46875l0 -66.40625q28.640625 -9.375 62.234375 -35.546875q33.59375 -26.171875 46.09375 -61.0625l59.375 0l0 383.32812z" fill-rule="nonzero"/></g></svg>