<svg version="1.1" viewBox="0.0 0.0 960.0 720.0" fill="none" stroke="none" stroke-linecap="square" stroke-miterlimit="10" xmlns:xlink="http://www.w3.org/1999/xlink" xmlns="http://www.w3.org/2000/svg"><clipPath id="p.0"><path d="m0 0l960.0 0l0 720.0l-960.0 0l0 -720.0z" clip-rule="nonzero"/></clipPath><g clip-path="url(#p.0)"><path fill="#000000" fill-opacity="0.0" d="m0 0l960.0 0l0 720.0l-960.0 0z" fill-rule="evenodd"/><path fill="#000000" fill-opacity="0.0" d="m33.165356 40.076115l891.3701 0l0 620.50397l-891.3701 0z" fill-rule="evenodd"/><path fill="#ffffff" d="m349.4466 517.59174l-261.70312 -113.8125l0 -63.015625l261.70312 -113.28125l0 74.21875l-182.54686 69.796875l182.54686 72.390625l0 73.703125zm-18.997833 50.0l189.06253 -394.79688l52.078125 0l-188.7969 394.79688l-52.34375 0zm216.92563 -49.75l0 -73.6875l182.8125 -71.875l-182.8125 -71.09375l0 -73.171875l261.96875 113.265625l0 62.5l-261.96875 114.0625z" fill-rule="nonzero"/></g></svg>